# xmcd
#
# Track frame offsets:
#	150
#	18182
#	29042
#	45621
#	55545
#	65925
#	77031
#	91507
#	103943
#	116269
#	126369
#	136231
#	149432
#	165857
#	182276
#	193046
#	206761
#	219881
#	235134
#	252310
#	264760
#	277207
#	288957
#
# Disc length: 4006 seconds
#
# Revision: 1
# Processed by: cddbd v1.5.2PL0 Copyright (c) Steve Scherf et al.
# Submitted via: audiograbber 1.83.01
#
DISCID=450fa417
DTITLE=Bobby Goldsboro - Honey - We Gotta Start Lovin'
DYEAR=2006
DGENRE=Oldies
TTITLE0=Honey
TTITLE1=Run To Me
TTITLE2=With Pen In Hand
TTITLE3=Pardon Me Miss
TTITLE4=Why Don't You Believe Me
TTITLE5=Pledge Of Love
TTITLE6=Little Green Apples
TTITLE7=Love Arrestor
TTITLE8=By The Time I Get To Phoenix
TTITLE9=Beautiful People
TTITLE10=A Woman
TTITLE11=My God And I
TTITLE12=For The Very First Time
TTITLE13=Heaven Here On Earth
TTITLE14=Mary Jackson
TTITLE15=About Time
TTITLE16=Down On The Bayou
TTITLE17=We Gotta Start Lovin'
TTITLE18=He Ain't Heavy, He's My Brother
TTITLE19=Water Color Days
TTITLE20=It's Gonna Change
TTITLE21=Watching Scotty Grow
TTITLE22=Requiem
EXTD=
EXTT0=
EXTT1=
EXTT2=
EXTT3=
EXTT4=
EXTT5=
EXTT6=
EXTT7=
EXTT8=
EXTT9=
EXTT10=
EXTT11=
EXTT12=
EXTT13=
EXTT14=
EXTT15=
EXTT16=
EXTT17=
EXTT18=
EXTT19=
EXTT20=
EXTT21=
EXTT22=
PLAYORDER=
